<?xml version="1.0" encoding="UTF-8"?>
<!--Generator: Apple Native CoreSVG 341-->
<!DOCTYPE svg
PUBLIC "-//W3C//DTD SVG 1.1//EN"
       "http://www.w3.org/Graphics/SVG/1.1/DTD/svg11.dtd">
<svg version="1.1" xmlns="http://www.w3.org/2000/svg" xmlns:xlink="http://www.w3.org/1999/xlink" viewBox="0 0 237.109 129.053">
 <g>
  <rect height="129.053" opacity="0" width="237.109" x="0" y="0"/>
  <path d="M74.1186 82.6874C63.8366 91.6187 58.0566 103.011 58.0566 113.184C58.0566 116.153 58.8201 118.927 60.2868 121.289L10.498 121.289C3.07617 121.289 0 118.359 0 112.695C0 95.166 17.6758 74.4141 45.9961 74.4141C57.1893 74.4141 66.7197 77.6557 74.1186 82.6874ZM67.8223 40.625C67.8223 54.248 57.8613 64.7461 46.0449 64.7461C34.2285 64.7461 24.2676 54.248 24.2676 40.7227C24.2676 27.4902 34.3262 17.1387 46.0449 17.1387C57.7637 17.1387 67.8223 27.2949 67.8223 40.625Z" fill="white"/>
  <path d="M237.109 112.695C237.109 118.359 234.033 121.289 226.66 121.289L177.056 121.289C178.528 118.927 179.297 116.153 179.297 113.184C179.297 102.976 173.477 91.5399 163.127 82.5924C170.508 77.6156 179.99 74.4141 191.113 74.4141C219.434 74.4141 237.109 95.166 237.109 112.695ZM212.939 40.625C212.939 54.248 203.027 64.7461 191.211 64.7461C179.395 64.7461 169.385 54.248 169.385 40.7227C169.385 27.4902 179.443 17.1387 191.211 17.1387C202.93 17.1387 212.939 27.2949 212.939 40.625Z" fill="white"/>
  <path d="M118.701 63.3301C132.324 63.3301 143.75 51.2695 143.75 35.5957C143.75 20.3125 132.227 8.64258 118.701 8.64258C105.225 8.64258 93.7012 20.5078 93.7012 35.6934C93.7012 51.2695 105.127 63.3301 118.701 63.3301ZM76.123 121.289L161.23 121.289C167.578 121.289 171.484 118.213 171.484 113.184C171.484 96.9727 151.221 74.6094 118.652 74.6094C86.084 74.6094 65.8203 96.9727 65.8203 113.184C65.8203 118.213 69.7266 121.289 76.123 121.289Z" fill="white"/>
 </g>
</svg>
