<?xml version="1.0" encoding="UTF-8"?>
<!--Generator: Apple Native CoreSVG 341-->
<!DOCTYPE svg
PUBLIC "-//W3C//DTD SVG 1.1//EN"
       "http://www.w3.org/Graphics/SVG/1.1/DTD/svg11.dtd">
<svg version="1.1" xmlns="http://www.w3.org/2000/svg" xmlns:xlink="http://www.w3.org/1999/xlink" viewBox="0 0 136.279 134.459">
 <g>
  <rect height="134.459" opacity="0" width="136.279" x="0" y="0"/>
  <path d="M68.1152 126.434C69.7266 126.434 71.3379 126.385 72.9492 126.238L76.2207 132.391C77.0508 133.953 78.2715 134.539 79.9805 134.295C81.6895 134.002 82.5684 132.977 82.8125 131.268L83.8379 124.383C86.9629 123.504 89.9414 122.381 92.8711 121.063L97.998 125.701C99.2676 126.922 100.732 126.971 102.197 126.189C103.711 125.359 104.248 124.041 103.857 122.332L102.393 115.496C105.029 113.689 107.471 111.59 109.766 109.393L116.211 111.98C117.871 112.615 119.189 112.225 120.361 110.955C121.484 109.686 121.533 108.27 120.605 106.756L116.895 100.848C118.701 98.211 120.312 95.4766 121.68 92.5957L128.613 92.8399C130.371 92.8887 131.543 92.1074 132.129 90.4473C132.764 88.8848 132.373 87.5176 131.006 86.4434L125.439 82.1953C126.27 79.1192 126.855 75.9942 127.148 72.7227L133.74 70.5742C135.449 70.0371 136.279 68.9141 136.279 67.2051C136.279 65.4961 135.449 64.3242 133.74 63.7871L127.148 61.6875C126.855 58.416 126.27 55.2422 125.439 52.166L130.957 47.918C132.373 46.8438 132.666 45.5254 132.178 43.8652C131.543 42.2051 130.322 41.5215 128.613 41.5703L121.68 41.7656C120.312 38.8848 118.701 36.1016 116.895 33.4649L120.557 27.6055C121.533 26.1406 121.338 24.7246 120.361 23.4063C119.189 22.0391 117.773 21.7949 116.26 22.3809L109.766 25.0176C107.471 22.6738 104.98 20.6719 102.393 18.8164L103.857 12.0781C104.199 10.3203 103.662 9.0508 102.246 8.17189C100.684 7.34181 99.2676 7.53712 98.0469 8.66017L92.8223 13.2988C89.9414 11.9317 86.9141 10.9063 83.7891 10.0274L82.8125 3.14259C82.5684 1.38478 81.5918 0.457046 79.9805 0.0664209C78.2715-0.226548 77.002 0.457046 76.2207 1.97072L72.9004 8.12306C71.3379 8.02541 69.7266 7.92775 68.1152 7.92775C66.5039 7.92775 64.9414 8.02541 63.3301 8.12306L60.0586 1.97072C59.2285 0.408218 57.959-0.128892 56.2988 0.0664209C54.5898 0.35939 53.6621 1.43361 53.418 3.09376L52.3926 10.0274C49.2676 10.9063 46.2891 12.0293 43.3594 13.3477L38.2812 8.66017C36.9629 7.4883 35.5469 7.39064 34.0332 8.17189C32.5684 9.0508 32.0312 10.3692 32.373 12.0293L33.8379 18.9141C31.2012 20.7207 28.7598 22.7715 26.5137 25.0176L20.0684 22.3809C18.457 21.7461 17.041 22.1367 15.918 23.4063C14.7949 24.7246 14.7461 26.1406 15.6738 27.6055L19.3848 33.5137C17.5293 36.1504 15.9668 38.9336 14.5508 41.8145L7.66602 41.5215C5.85938 41.4727 4.6875 42.3027 4.10156 43.9141C3.51562 45.5254 3.95508 46.8438 5.32227 47.918L10.8398 52.2149C9.96094 55.291 9.42383 58.416 9.13086 61.6875L2.49023 63.7871C0.830078 64.3242 0 65.4961 0 67.2051C0 68.9141 0.830078 70.0371 2.49023 70.5742L9.13086 72.7227C9.42383 75.9942 9.96094 79.1192 10.8398 82.1953L5.32227 86.4922C3.95508 87.5664 3.61328 88.8848 4.10156 90.4961C4.73633 92.1563 5.85938 92.8399 7.61719 92.791L14.5508 92.5957C15.9668 95.5254 17.5293 98.2598 19.3848 100.896L15.6738 106.756C14.7461 108.27 14.8926 109.686 15.918 111.004C17.0898 112.322 18.457 112.615 20.0195 111.98L26.5137 109.344C28.7598 111.639 31.25 113.689 33.8379 115.545L32.4219 122.332C32.0801 124.09 32.6172 125.359 34.0332 126.238C35.5957 127.068 36.9629 126.922 38.2324 125.75L43.457 121.063C46.3379 122.43 49.3164 123.504 52.4414 124.383L53.418 131.268C53.6621 132.977 54.6387 133.953 56.2988 134.295C58.0078 134.588 59.2285 133.953 60.0586 132.439L63.3301 126.238C64.9414 126.385 66.5039 126.434 68.1152 126.434ZM68.1152 117.547C40.332 117.547 17.7734 94.9883 17.7734 67.2051C17.7734 39.3731 40.332 16.8145 68.1152 16.8145C95.9473 16.8145 118.506 39.3731 118.506 67.2051C118.506 94.9883 95.9473 117.547 68.1152 117.547ZM57.959 57.6348L64.4531 53.6309L43.2129 17.1563L36.4746 20.916ZM81.5918 70.8184L123.877 70.8184L123.877 63.25L81.5918 63.25ZM64.6973 80.877L58.3008 76.7754L36.0352 113.299L42.6758 117.205ZM68.2129 82.8301C76.8555 82.8301 83.8379 75.8477 83.8379 67.2051C83.8379 58.5625 76.8555 51.5313 68.2129 51.5313C59.5703 51.5313 52.5391 58.5625 52.5391 67.2051C52.5391 75.8477 59.5703 82.8301 68.2129 82.8301ZM68.2129 74.7246C64.0137 74.7246 60.6934 71.3555 60.6934 67.2051C60.6934 63.0547 64.0137 59.6856 68.2129 59.6856C72.3633 59.6856 75.7324 63.0547 75.7324 67.2051C75.7324 71.3555 72.3633 74.7246 68.2129 74.7246Z" fill="black" fill-opacity="0.85"/>
 </g>
</svg>
