<?xml version="1.0" encoding="UTF-8"?>
<!-- Generated by Pixelmator Pro 3.7.1 -->
<svg width="105" height="112" viewBox="0 0 105 112" xmlns="http://www.w3.org/2000/svg">
    <g id="g1">
        <path id="path1" fill="#000000" stroke="none" opacity="0" d="M 0 -0.646004 L 105.664001 -0.646004 L 105.664001 112 L 0 112 Z"/>
        <path id="path2" fill="#ffffff" stroke="none" d="M 30.460243 81.028893 L 75.539757 81.028893 C 78.929893 81.028893 81 79.39814 81 76.758835 C 81 68.167343 70.260658 56.315205 53 56.315205 C 35.739391 56.315205 25 68.167343 25 76.758835 C 25 79.39814 27.070242 81.028893 30.460243 81.028893 Z M 53.025917 50.337379 C 60.245857 50.337379 66.301323 43.919617 66.301323 35.638649 C 66.301323 27.538834 60.194077 21.353996 53.025917 21.353996 C 45.883564 21.353996 39.776371 27.642342 39.776371 35.69043 C 39.776371 43.919617 45.831783 50.337379 53.025917 50.337379 Z"/>
    </g>
</svg>
